<svg viewBox="0 0 896 704" fill="none" xmlns="http://www.w3.org/2000/svg"><path d="M454.3 299a7.996 7.996 0 00-6.3-3.069 8 8 0 00-6.3 3.069l-112 141.7a7.982 7.982 0 006.3 12.9h73.9V696c0 4.4 3.6 8 8 8h60c4.4 0 8-3.6 8-8V453.7H560c6.7 0 10.4-7.7 6.3-12.9L454.3 299z" fill="currentColor"/><path d="M747.4 206.7C701.6 85.9 584.9 0 448.2 0S194.8 85.8 149 206.6C63.3 229.1 0 307.2 0 400c0 110.5 89.5 200 199.9 200H240c4.4 0 8-3.6 8-8v-60c0-4.4-3.6-8-8-8h-40.1c-33.7 0-65.4-13.4-89-37.7-23.5-24.2-36-56.8-34.9-90.6.9-26.4 9.9-51.2 26.2-72.1 16.7-21.3 40.1-36.8 66.1-43.7l37.9-9.9 13.9-36.6c8.6-22.8 20.6-44.1 35.7-63.4a245.592 245.592 0 0152.4-49.9c41.1-28.9 89.5-44.2 140-44.2s98.9 15.3 140 44.2c19.9 14 37.5 30.8 52.4 49.9 15.1 19.3 27.1 40.7 35.7 63.4l13.8 36.5 37.8 10C782.1 294.5 820 343.8 820 400c0 33.1-12.9 64.3-36.3 87.7a123.067 123.067 0 01-87.6 36.3H656c-4.4 0-8 3.6-8 8v60c0 4.4 3.6 8 8 8h40.1C806.5 600 896 510.5 896 400c0-92.7-63.1-170.7-148.6-193.3z" fill="currentColor"/></svg>
